<?xml version="1.0" encoding="utf-8"?>
<!-- Generator: Adobe Illustrator 25.2.3, SVG Export Plug-In . SVG Version: 6.00 Build 0)  -->
<svg version="1.1" id="Layer_1" xmlns="http://www.w3.org/2000/svg" xmlns:xlink="http://www.w3.org/1999/xlink" x="0px" y="0px"
	 viewBox="0 0 200 200" style="enable-background:new 0 0 200 200;" xml:space="preserve">
<style type="text/css">
	.st0{fill:#010202;}
	.st1{fill:none;}
	.st2{fill-rule:evenodd;clip-rule:evenodd;fill:#FFFFFF;}
</style>
<g>
	<path class="st0" d="M100,10.5c-49.43,0-89.5,40.07-89.5,89.5c0,49.43,40.07,89.5,89.5,89.5s89.5-40.07,89.5-89.5
		C189.5,50.57,149.43,10.5,100,10.5z M100,169.39c-38.38,0-69.5-31.07-69.5-69.39S61.62,30.61,100,30.61s69.5,31.07,69.5,69.39
		S138.38,169.39,100,169.39z"/>
</g>
<path id="SVGID_x5F_1_x5F_" class="st1" d="M20,100c0-44.18,35.82-80,80-80s80,35.82,80,80"/>
<text><textPath  xlink:href="#SVGID_x5F_1_x5F_" startOffset="6.5552%">
<tspan  style="fill:#FFFFFF; font-family:'Baloo-Regular'; font-size:10px;">FIND A NEW HOME FOR YOUR PRE-LOVED STUFF</tspan></textPath>
</text>
<path class="st1" d="M20,100c0-44.18,35.82-80,80-80s80,35.82,80,80"/>
<g>
	<path d="M78.33,94.37c0,1.01-0.18,1.76-0.54,2.25c-0.36,0.49-0.93,0.96-1.71,1.42c-0.46,0.26-1.03,0.52-1.71,0.76
		c-0.69,0.24-1.44,0.46-2.25,0.64c-0.82,0.18-1.67,0.32-2.57,0.42c-0.9,0.1-1.79,0.15-2.67,0.15c-2.35,0-4.55-0.32-6.6-0.96
		c-2.06-0.64-3.84-1.6-5.36-2.89c-1.52-1.29-2.72-2.9-3.6-4.82c-0.88-1.93-1.32-4.16-1.32-6.7c0-2.67,0.48-5.01,1.44-7
		c0.96-1.99,2.23-3.64,3.82-4.96c1.58-1.32,3.39-2.31,5.43-2.96c2.04-0.65,4.13-0.98,6.29-0.98c3.1,0,5.55,0.5,7.37,1.49
		c1.81,0.99,2.71,2.29,2.71,3.89c0,0.85-0.21,1.58-0.64,2.2c-0.43,0.62-0.91,1.11-1.47,1.47c-0.82-0.49-1.83-0.97-3.06-1.44
		c-1.22-0.47-2.6-0.71-4.14-0.71c-2.74,0-4.92,0.78-6.53,2.35c-1.61,1.56-2.42,3.73-2.42,6.51c0,1.5,0.22,2.8,0.66,3.89
		c0.44,1.09,1.03,1.99,1.78,2.69c0.75,0.7,1.61,1.22,2.59,1.56c0.98,0.34,2.02,0.51,3.13,0.51c0.72,0,1.35-0.06,1.91-0.19
		c0.55-0.13,0.98-0.28,1.27-0.44v-4.6h-5.24c-0.2-0.36-0.38-0.83-0.56-1.42c-0.18-0.59-0.27-1.21-0.27-1.86
		c0-1.18,0.27-2.02,0.81-2.54c0.54-0.52,1.23-0.78,2.08-0.78h8.27c0.98,0,1.74,0.27,2.28,0.81c0.54,0.54,0.81,1.3,0.81,2.28V94.37z"
		/>
	<path d="M110.22,88.26c0,1.76-0.3,3.37-0.91,4.82c-0.6,1.45-1.48,2.69-2.62,3.72c-1.14,1.03-2.53,1.82-4.16,2.37
		c-1.63,0.55-3.47,0.83-5.53,0.83c-2.05,0-3.9-0.28-5.53-0.83s-3.02-1.35-4.16-2.37c-1.14-1.03-2.01-2.27-2.62-3.72
		c-0.6-1.45-0.91-3.06-0.91-4.82V69.57c0.36-0.06,0.93-0.16,1.71-0.27c0.78-0.11,1.53-0.17,2.25-0.17c0.75,0,1.41,0.06,1.98,0.17
		c0.57,0.11,1.05,0.32,1.44,0.61c0.39,0.29,0.69,0.7,0.88,1.22c0.2,0.52,0.29,1.21,0.29,2.06v14.92c0,1.56,0.43,2.79,1.29,3.67
		c0.86,0.88,1.98,1.32,3.35,1.32c1.4,0,2.53-0.44,3.38-1.32c0.85-0.88,1.27-2.1,1.27-3.67V69.57c0.36-0.06,0.93-0.16,1.71-0.27
		c0.78-0.11,1.53-0.17,2.25-0.17c0.75,0,1.41,0.06,1.98,0.17c0.57,0.11,1.05,0.32,1.44,0.61c0.39,0.29,0.69,0.7,0.88,1.22
		c0.2,0.52,0.29,1.21,0.29,2.06V88.26z"/>
	<path d="M136.94,91.93c-0.42,0.36-0.97,0.65-1.64,0.86c-0.67,0.21-1.44,0.32-2.32,0.32c-1.17,0-2.14-0.15-2.91-0.44
		c-0.77-0.29-1.26-0.8-1.49-1.52c-0.91-2.87-1.66-5.19-2.25-6.97c-0.59-1.78-1.04-3.33-1.37-4.67h-0.25
		c-0.1,1.92-0.17,3.68-0.22,5.26c-0.05,1.58-0.08,3.12-0.1,4.62s-0.05,3.02-0.1,4.55c-0.05,1.53-0.12,3.23-0.22,5.09
		c-0.43,0.16-0.98,0.3-1.66,0.42c-0.69,0.11-1.37,0.17-2.05,0.17c-1.44,0-2.55-0.23-3.35-0.69c-0.8-0.46-1.2-1.29-1.2-2.49
		l1.42-24.95c0.26-0.42,0.83-0.88,1.71-1.37c0.88-0.49,2.12-0.73,3.72-0.73c1.73,0,3.08,0.27,4.06,0.81s1.7,1.41,2.15,2.62
		c0.29,0.78,0.61,1.68,0.95,2.69c0.34,1.01,0.69,2.05,1.03,3.13c0.34,1.08,0.68,2.15,1,3.2c0.33,1.06,0.62,2.02,0.88,2.86h0.24
		c0.78-2.74,1.57-5.39,2.35-7.95c0.78-2.56,1.5-4.7,2.15-6.43c0.49-0.26,1.12-0.48,1.88-0.66s1.62-0.27,2.57-0.27
		c1.6,0,2.9,0.24,3.92,0.71c1.01,0.47,1.6,1.15,1.76,2.03c0.13,0.65,0.27,1.66,0.42,3.01c0.15,1.35,0.3,2.88,0.47,4.57
		c0.16,1.7,0.32,3.49,0.49,5.38c0.16,1.89,0.32,3.71,0.47,5.46c0.15,1.74,0.27,3.34,0.37,4.79c0.1,1.45,0.16,2.57,0.19,3.35
		c-0.55,0.32-1.13,0.56-1.74,0.71c-0.6,0.15-1.38,0.22-2.32,0.22c-1.24,0-2.28-0.21-3.13-0.64c-0.85-0.43-1.3-1.26-1.37-2.5
		c-0.19-3.55-0.32-6.75-0.37-9.59c-0.05-2.84-0.12-5.22-0.22-7.14h-0.25c-0.32,1.27-0.8,2.87-1.42,4.79
		C138.57,86.46,137.82,88.92,136.94,91.93z"/>
</g>
<g>
	<path d="M69.97,100.41c0.22,0.34,0.41,0.8,0.59,1.38c0.17,0.58,0.26,1.18,0.26,1.8c0,1.22-0.26,2.09-0.77,2.6
		c-0.52,0.52-1.21,0.77-2.09,0.77h-9.85v5.3h10.27c0.25,0.34,0.46,0.8,0.63,1.36c0.17,0.56,0.26,1.16,0.26,1.78
		c0,1.19-0.26,2.04-0.77,2.55c-0.52,0.52-1.21,0.77-2.09,0.77h-8.2v9.89c-0.34,0.1-0.88,0.19-1.62,0.28
		c-0.73,0.1-1.46,0.14-2.18,0.14c-0.72,0-1.35-0.05-1.9-0.16c-0.55-0.11-1.01-0.3-1.38-0.59c-0.38-0.28-0.66-0.67-0.84-1.17
		c-0.19-0.5-0.28-1.15-0.28-1.97v-20.39c0-1.35,0.39-2.41,1.17-3.19c0.78-0.78,1.85-1.17,3.19-1.17H69.97z"/>
	<path d="M83.05,119.63v9c-0.35,0.1-0.88,0.19-1.62,0.28c-0.73,0.1-1.46,0.14-2.18,0.14s-1.35-0.05-1.9-0.16
		c-0.55-0.11-1-0.3-1.36-0.59c-0.36-0.28-0.63-0.67-0.82-1.17c-0.19-0.5-0.28-1.15-0.28-1.97v-22.08c0-0.65,0.18-1.16,0.54-1.52
		c0.36-0.36,0.85-0.65,1.48-0.87c1.06-0.38,2.3-0.65,3.7-0.82c1.41-0.17,2.91-0.26,4.5-0.26c4.31,0,7.56,0.91,9.75,2.72
		c2.19,1.81,3.28,4.27,3.28,7.36c0,1.94-0.5,3.59-1.5,4.97c-1,1.37-2.19,2.44-3.56,3.19c1.13,1.53,2.23,2.97,3.33,4.31
		c1.09,1.35,1.95,2.56,2.58,3.66c-0.31,1.09-0.88,1.93-1.71,2.5c-0.83,0.58-1.76,0.87-2.79,0.87c-0.69,0-1.28-0.08-1.78-0.23
		c-0.5-0.16-0.94-0.38-1.31-0.66c-0.38-0.28-0.72-0.62-1.03-1.03c-0.31-0.41-0.61-0.84-0.89-1.31l-3.94-6.33H83.05z M86.01,113.39
		c1.19,0,2.12-0.31,2.81-0.92c0.69-0.61,1.03-1.51,1.03-2.69c0-1.19-0.38-2.09-1.15-2.7c-0.77-0.61-1.98-0.92-3.64-0.92
		c-0.47,0-0.84,0.02-1.12,0.05c-0.28,0.03-0.6,0.08-0.94,0.14v7.03H86.01z"/>
	<path d="M103.45,104.77c0-1.35,0.39-2.41,1.17-3.19c0.78-0.78,1.85-1.17,3.19-1.17h15.47c0.22,0.34,0.41,0.8,0.59,1.36
		c0.17,0.56,0.26,1.15,0.26,1.78c0,1.19-0.26,2.03-0.77,2.53c-0.51,0.5-1.19,0.75-2.04,0.75h-9.89v4.36h10.55
		c0.22,0.34,0.42,0.79,0.59,1.34c0.17,0.54,0.26,1.13,0.26,1.76c0,1.19-0.25,2.03-0.75,2.53c-0.5,0.5-1.17,0.75-2.02,0.75h-8.62
		v4.93h12.05c0.22,0.34,0.41,0.8,0.59,1.36c0.17,0.56,0.26,1.15,0.26,1.78c0,1.19-0.26,2.04-0.77,2.55
		c-0.51,0.51-1.19,0.77-2.04,0.77h-13.69c-1.34,0-2.41-0.39-3.19-1.17c-0.78-0.78-1.17-1.85-1.17-3.19V104.77z"/>
	<path d="M129.14,104.77c0-1.35,0.39-2.41,1.17-3.19c0.78-0.78,1.85-1.17,3.19-1.17h15.47c0.22,0.34,0.42,0.8,0.59,1.36
		c0.17,0.56,0.26,1.15,0.26,1.78c0,1.19-0.26,2.03-0.77,2.53c-0.52,0.5-1.19,0.75-2.04,0.75h-9.89v4.36h10.55
		c0.22,0.34,0.41,0.79,0.59,1.34c0.17,0.54,0.26,1.13,0.26,1.76c0,1.19-0.25,2.03-0.75,2.53c-0.5,0.5-1.17,0.75-2.01,0.75h-8.63
		v4.93h12.05c0.22,0.34,0.42,0.8,0.59,1.36c0.17,0.56,0.26,1.15,0.26,1.78c0,1.19-0.26,2.04-0.77,2.55
		c-0.52,0.51-1.19,0.77-2.04,0.77H133.5c-1.34,0-2.41-0.39-3.19-1.17c-0.78-0.78-1.17-1.85-1.17-3.19V104.77z"/>
</g>
<path class="st2" d="M106.73,179.98l-6.08,6.08c-0.35,0.35-0.93,0.35-1.28,0l-6.12-6.12c-0.75-0.75-1.17-1.75-1.17-2.82
	s0.41-2.07,1.17-2.82c0.75-0.75,1.75-1.17,2.82-1.17c1.06,0,2.07,0.41,2.82,1.17l0.48,0.48l-0.73,0.73c-0.18,0.18-0.18,0.46,0,0.64
	c0.09,0.09,0.2,0.13,0.32,0.13c0.12,0,0.23-0.04,0.32-0.13l1.85-1.85c0.75-0.75,1.75-1.17,2.82-1.17c1.08,0,2.09,0.43,2.85,1.2
	C108.32,175.88,108.29,178.42,106.73,179.98 M107.45,173.7c-0.93-0.95-2.17-1.47-3.5-1.47c-1.31,0-2.54,0.51-3.46,1.43l-0.48,0.48
	l-0.48-0.48c-0.92-0.92-2.15-1.43-3.46-1.43c-1.31,0-2.54,0.51-3.46,1.43c-0.92,0.92-1.43,2.15-1.43,3.46
	c0,1.31,0.51,2.54,1.43,3.46l6.12,6.12c0.35,0.35,0.82,0.53,1.28,0.53c0.46,0,0.93-0.18,1.28-0.53l6.08-6.08
	C109.28,178.71,109.31,175.6,107.45,173.7z"/>
<path class="st2" d="M107.25,176.91c-0.05-0.81-0.39-1.56-0.96-2.13c-0.4-0.4-0.9-0.7-1.45-0.85c-0.24-0.07-0.49,0.07-0.56,0.32
	c-0.07,0.24,0.07,0.49,0.32,0.56c0.39,0.11,0.76,0.32,1.05,0.62c0.41,0.41,0.66,0.96,0.7,1.55c0.01,0.24,0.21,0.43,0.45,0.43
	c0.01,0,0.02,0,0.03,0C107.07,177.38,107.26,177.16,107.25,176.91"/>
</svg>
